<svg xmlns="http://www.w3.org/2000/svg" width="1400" height="900" viewBox="0 0 1400 900">
<rect width="100%" height="100%" fill="#f6f1e8"/>
<rect x="54" y="54" width="1292" height="792" rx="28" fill="#fffaf1" stroke="#182126" stroke-width="3"/>
<text x="92" y="120" font-family="Georgia, serif" font-size="40" fill="#182126">How Fake Moving Companies Scam Families Scene Timing Overview</text>
<text x="92" y="156" font-family="Arial, sans-serif" font-size="20" fill="#5c5d58">Estimated narration timing by scene</text>
<text x="92" y="215" font-family="Arial, sans-serif" font-size="20" fill="#182126">S01 - Hook And Stakes</text>
<rect x="250" y="180" width="980" height="54" rx="14" fill="#ebe2d3"/>
<rect x="250" y="180" width="980" height="54" rx="14" fill="#b34a36"/>
<text x="1248" y="215" font-family="Arial, sans-serif" font-size="18" fill="#182126">29s</text>
<text x="92" y="295" font-family="Arial, sans-serif" font-size="20" fill="#182126">S02 - The Legitimate Business Model</text>
<rect x="250" y="260" width="980" height="54" rx="14" fill="#ebe2d3"/>
<rect x="250" y="260" width="980" height="54" rx="14" fill="#2f6c68"/>
<text x="1248" y="295" font-family="Arial, sans-serif" font-size="18" fill="#182126">29s</text>
<text x="92" y="375" font-family="Arial, sans-serif" font-size="20" fill="#182126">S03 - How The Money Works</text>
<rect x="250" y="340" width="980" height="54" rx="14" fill="#ebe2d3"/>
<rect x="250" y="340" width="811" height="54" rx="14" fill="#b34a36"/>
<text x="1079" y="375" font-family="Arial, sans-serif" font-size="18" fill="#182126">24s</text>
<text x="92" y="455" font-family="Arial, sans-serif" font-size="20" fill="#182126">S04 - Where Pressure Enters</text>
<rect x="250" y="420" width="980" height="54" rx="14" fill="#ebe2d3"/>
<rect x="250" y="420" width="946" height="54" rx="14" fill="#2f6c68"/>
<text x="1214" y="455" font-family="Arial, sans-serif" font-size="18" fill="#182126">28s</text>
<text x="92" y="535" font-family="Arial, sans-serif" font-size="20" fill="#182126">S05 - Evidence Gap And Public Cases</text>
<rect x="250" y="500" width="980" height="54" rx="14" fill="#ebe2d3"/>
<rect x="250" y="500" width="946" height="54" rx="14" fill="#b34a36"/>
<text x="1214" y="535" font-family="Arial, sans-serif" font-size="18" fill="#182126">28s</text>
<text x="92" y="615" font-family="Arial, sans-serif" font-size="20" fill="#182126">S06 - Warning Signs For Viewers</text>
<rect x="250" y="580" width="980" height="54" rx="14" fill="#ebe2d3"/>
<rect x="250" y="580" width="811" height="54" rx="14" fill="#2f6c68"/>
<text x="1079" y="615" font-family="Arial, sans-serif" font-size="18" fill="#182126">24s</text>
<text x="92" y="695" font-family="Arial, sans-serif" font-size="20" fill="#182126">S07 - Final Takeaway</text>
<rect x="250" y="660" width="980" height="54" rx="14" fill="#ebe2d3"/>
<rect x="250" y="660" width="709" height="54" rx="14" fill="#b34a36"/>
<text x="977" y="695" font-family="Arial, sans-serif" font-size="18" fill="#182126">21s</text>
</svg>
